<?xml version="1.0" standalone="no"?>
<!DOCTYPE svg PUBLIC "-//W3C//DTD SVG 20010904//EN"
 "http://www.w3.org/TR/2001/REC-SVG-20010904/DTD/svg10.dtd">
<svg version="1.0" xmlns="http://www.w3.org/2000/svg"
 width="500.000000pt" height="500.000000pt" viewBox="0 0 500.000000 500.000000"
 preserveAspectRatio="xMidYMid meet">

<g transform="translate(0.000000,500.000000) scale(0.100000,-0.100000)"
fill="#000000" stroke="none">
<path d="M1700 3800 c-141 -14 -240 -63 -349 -172 -67 -67 -119 -161 -140
-253 -8 -35 -12 -299 -14 -880 -2 -915 -6 -859 61 -991 60 -119 146 -201 277
-264 120 -57 157 -60 901 -56 703 4 679 2 731 58 46 50 55 115 23 178 -38 75
-2 71 -763 74 -617 2 -687 4 -735 20 -68 22 -124 73 -159 144 l-28 57 -3 777
c-3 767 -3 777 18 840 32 94 63 136 123 163 l51 24 811 -6 c748 -5 813 -7 845
-23 74 -38 124 -119 140 -227 12 -87 13 -1445 0 -1532 -12 -82 -43 -128 -124
-183 -36 -23 -77 -61 -91 -83 -23 -35 -26 -48 -23 -108 3 -60 7 -71 35 -98 61
-62 148 -47 278 46 107 76 178 173 216 295 l24 75 0 820 c0 658 -3 831 -14
875 -48 195 -190 348 -384 413 -60 20 -83 21 -847 23 -432 1 -819 -2 -860 -6z
m1695 -78 c179 -68 315 -226 345 -402 7 -45 10 -313 8 -860 l-3 -795 -23 -60
c-79 -211 -315 -385 -391 -289 -43 54 -19 124 55 163 56 30 119 99 147 159 22
47 22 48 22 867 l0 820 -23 43 c-36 67 -98 129 -161 159 l-56 28 -815 0 -815
0 -58 -29 c-68 -35 -123 -91 -157 -161 l-25 -50 0 -815 c0 -814 0 -815 22
-862 30 -66 96 -133 162 -165 l56 -28 703 -5 704 -5 24 -28 c34 -40 32 -90 -5
-128 l-29 -29 -674 0 c-435 0 -695 4 -734 11 -175 31 -328 165 -397 347 -22
56 -22 64 -25 861 -3 777 -2 806 17 883 48 190 185 328 373 378 70 18 109 19
883 17 l810 -2 60 -23z"/>
<path d="M3100 2998 c-41 -9 -69 -33 -314 -277 -388 -385 -459 -459 -477 -502
-12 -29 -30 -41 -45 -31 -6 4 -29 34 -51 66 -54 76 -215 240 -272 277 -108 69
-241 3 -241 -119 0 -62 22 -101 97 -174 35 -35 122 -121 191 -192 146 -148
203 -186 277 -186 106 0 122 13 583 473 233 232 430 435 439 451 10 20 14 47
11 88 -3 47 -10 64 -33 88 -15 16 -42 32 -59 35 -17 4 -38 8 -46 10 -8 1 -35
-2 -60 -7z m106 -63 c29 -20 48 -69 39 -102 -4 -17 -156 -176 -428 -449 -457
-458 -475 -473 -559 -460 -22 4 -54 14 -71 23 -34 17 -393 371 -421 415 -40
62 9 138 87 138 40 0 47 -6 228 -186 151 -151 190 -184 204 -177 9 5 193 185
408 400 216 215 401 395 412 401 28 16 77 15 101 -3z"/>
</g>
</svg>
