<?xml version="1.0" standalone="no"?>
<!DOCTYPE svg PUBLIC "-//W3C//DTD SVG 20010904//EN"
 "http://www.w3.org/TR/2001/REC-SVG-20010904/DTD/svg10.dtd">
<svg version="1.0" xmlns="http://www.w3.org/2000/svg"
 width="238.000000pt" height="250.000000pt" viewBox="0 0 238.000000 250.000000"
 preserveAspectRatio="xMidYMid meet">

<g transform="translate(0.000000,250.000000) scale(0.100000,-0.100000)"
fill="#000000" stroke="none">
<path d="M1063 2210 c-263 -33 -517 -211 -641 -449 -77 -147 -96 -226 -97
-401 0 -146 5 -179 47 -305 58 -171 214 -364 378 -467 143 -89 257 -121 435
-121 194 0 320 37 477 139 145 93 276 255 338 416 26 68 31 92 26 132 -6 55
-43 125 -82 155 -32 25 -114 51 -162 51 -18 0 -32 4 -30 10 2 5 67 74 145 153
182 184 202 230 148 336 -36 72 -100 111 -183 111 -54 0 -98 -23 -143 -75 -45
-51 -61 -47 -53 14 13 96 -44 199 -132 240 -111 53 -320 79 -471 61z m252 -95
c208 -34 250 -66 247 -184 -1 -47 -44 -91 -89 -91 -18 0 -72 12 -120 26 -129
39 -261 39 -359 1 -93 -36 -147 -72 -212 -138 -111 -116 -159 -249 -148 -412
20 -299 264 -536 551 -537 200 0 399 119 482 289 16 31 28 58 29 61 0 3 7 21
16 41 25 56 55 79 105 79 37 0 48 -5 83 -41 49 -51 51 -82 14 -172 -29 -69
-127 -217 -171 -259 -90 -85 -234 -166 -363 -204 -89 -26 -288 -25 -380 1
-186 53 -342 161 -436 300 -14 22 -29 42 -33 45 -18 14 -92 194 -108 260 -23
99 -22 272 1 360 40 149 149 327 244 397 20 15 39 31 42 34 13 16 102 66 160
91 155 67 276 81 445 53z m615 -241 c42 -25 63 -69 57 -116 -6 -46 1 -39 -432
-476 -159 -162 -302 -300 -317 -308 -36 -19 -88 -18 -118 2 -30 20 -317 311
-329 333 -9 16 -14 52 -12 83 1 23 50 78 79 89 54 21 89 2 205 -112 61 -60
114 -108 118 -107 4 2 148 140 319 308 171 168 319 308 328 312 30 12 73 8
102 -8z m-608 -104 c77 -31 114 -40 159 -40 32 0 59 -3 59 -8 0 -4 -66 -72
-146 -152 -80 -80 -159 -164 -175 -187 -17 -24 -35 -43 -42 -43 -7 0 -21 16
-32 36 -31 58 -128 152 -180 175 -56 25 -109 20 -163 -13 -45 -28 -57 -13 -32
38 60 121 246 233 389 234 52 0 83 -8 163 -40z m278 -588 c0 -31 -57 -137 -91
-169 -37 -35 -166 -113 -186 -113 -7 0 -13 6 -13 14 0 19 270 297 281 290 5
-3 9 -13 9 -22z m-746 -64 c57 -65 62 -101 12 -82 -24 9 -96 109 -96 133 0 18
3 20 19 11 11 -5 40 -33 65 -62z"/>
</g>
</svg>
